<?xml version="1.0" encoding="utf-8"?>
<!-- Generator: Adobe Illustrator 26.3.1, SVG Export Plug-In . SVG Version: 6.00 Build 0)  -->
<svg version="1.1" id="Layer_1" xmlns="http://www.w3.org/2000/svg" xmlns:xlink="http://www.w3.org/1999/xlink" x="0px" y="0px"
	 viewBox="0 0 100 100" style="enable-background:new 0 0 100 100;" xml:space="preserve">
<style type="text/css">
	.st0{fill:#F4F4F5;}
</style>
<circle class="st0" cx="27.4" cy="35.1" r="4.1"/>
<path class="st0" d="M74,39.2H38.3c-0.8,0-1.4-0.6-1.4-1.4v-5.3c0-0.8,0.6-1.4,1.4-1.4H74c0.8,0,1.4,0.6,1.4,1.4v5.3
	C75.4,38.5,74.7,39.2,74,39.2z"/>
<circle class="st0" cx="27.4" cy="49.4" r="4.1"/>
<path class="st0" d="M74,53.5H38.3c-0.8,0-1.4-0.6-1.4-1.4v-5.3c0-0.8,0.6-1.4,1.4-1.4H74c0.8,0,1.4,0.6,1.4,1.4v5.3
	C75.4,52.9,74.7,53.5,74,53.5z"/>
<circle class="st0" cx="27.7" cy="63.8" r="4.1"/>
<path class="st0" d="M74.2,67.9H38.6c-0.8,0-1.4-0.6-1.4-1.4v-5.3c0-0.8,0.6-1.4,1.4-1.4h35.6c0.8,0,1.4,0.6,1.4,1.4v5.3
	C75.6,67.2,75,67.9,74.2,67.9z"/>
</svg>
