<?xml version="1.0" encoding="utf-8"?>
<!-- Generator: Adobe Illustrator 26.2.1, SVG Export Plug-In . SVG Version: 6.00 Build 0)  -->
<svg version="1.1" id="Layer_1" xmlns="http://www.w3.org/2000/svg" xmlns:xlink="http://www.w3.org/1999/xlink" x="0px" y="0px"
	 viewBox="0 0 500 500" style="enable-background:new 0 0 500 500;" xml:space="preserve">
<style type="text/css">
	.st0{fill:#D9D9D9;}
	.st1{fill:#B8B8B8;}
	.st2{opacity:0.43;}
	.st3{fill:url(#SVGID_1_);}
	.st4{opacity:0.22;}
	.st5{fill:url(#SVGID_00000060025079782777033860000005502364429392228772_);}
	.st6{opacity:0.32;fill:#A78BFA;}
	.st7{fill:url(#SVGID_00000011715064901587553560000017079479766258694301_);}
	.st8{fill:#FFFFFF;}
	.st9{opacity:0.74;}
	.st10{fill:url(#SVGID_00000124840586532584502290000003141865487570801572_);}
	.st11{fill:#1E293B;}
	.st12{fill:#662D91;}
	.st13{fill:#484E7D;}
	.st14{fill:#EEA886;}
	.st15{fill:#5B639E;}
	.st16{fill:#292C47;}
	.st17{fill:#A78BFA;}
	.st18{fill:#323657;}
	.st19{fill:#807066;}
	.st20{fill:#434343;}
	.st21{fill:url(#SVGID_00000016758579685373532230000014833583702772997549_);}
	.st22{fill:#A77860;}
</style>
<g>
	<g>
		<rect x="15.2" y="133" class="st0" width="27.8" height="4.5"/>
		<rect x="15.2" y="141.3" class="st0" width="39.5" height="4.5"/>
		<rect x="364.7" y="133" class="st0" width="29.5" height="4.5"/>
		<rect x="364.7" y="141.3" class="st0" width="23.6" height="4.5"/>
		<rect x="131.4" y="335.8" class="st1" width="18.5" height="6"/>
		<g class="st2">
			<linearGradient id="SVGID_1_" gradientUnits="userSpaceOnUse" x1="15.1593" y1="236.6241" x2="480.0597" y2="236.6241">
				<stop  offset="5.791949e-07" style="stop-color:#A78BFA"/>
				<stop  offset="1" style="stop-color:#6D28D9"/>
			</linearGradient>
			<path class="st3" d="M439.8,274.7c-36.3,0-67.8-15.7-100.6-32c-40.6-20.2-82.5-41-138.4-35.3c-35.7,3.6-58.1,18.2-77.8,31
				c-17.9,11.6-34.8,21.8-57.7,22.7c-37,1.4-49.9-14.4-50.1-15.3v-10.1l0,0l0,0c0,0.2,8.1,17.9,50,17.7c20.6-0.1,35.9-10,53.5-21.4
				c20.5-13.3,43.7-28.4,81.3-32.2c58.1-5.9,101.1,15.4,142.6,36.1c43.5,21.6,85,41.9,137.4,24.3v8.3
				C465.1,273.3,453.1,274.7,439.8,274.7z"/>
		</g>
		<g class="st4">
			
				<linearGradient id="SVGID_00000004507607771975364570000007766320696442179980_" gradientUnits="userSpaceOnUse" x1="15.1593" y1="224.0444" x2="480.3053" y2="224.0444">
				<stop  offset="3.295419e-07" style="stop-color:#A78BFA"/>
				<stop  offset="1" style="stop-color:#8B5CF6"/>
			</linearGradient>
			<path style="fill:url(#SVGID_00000004507607771975364570000007766320696442179980_);" d="M222.2,272.7c-26.8,0-48-18-68.8-35.6
				c-15.8-13.4-32.1-27-51-33.7c-57.6-20.6-87,17-87.3,17.3v-11.4c0.3-0.4,5.6-7.2,20.8-13.7c13.8-5.9,37.1-10.7,69.1,0.5
				c20.3,7.1,37.1,21.3,53.4,35.2c33.1,28,61.6,52.2,111.2,14.3c37.6-28.7,73-56.1,107.8-66.1c34.1-9.8,69.6-2.6,102.8,30.6
				l-0.2,10.4c-70.6-70.9-130.8-26-205.7,31.3C254.6,266.8,237.5,272.7,222.2,272.7z"/>
		</g>
	</g>
	<path class="st6" d="M347,169.9H149c-15.3,0-27.7-12.4-27.7-27.7v-40.7c0-15.3,12.4-27.7,27.7-27.7H347c15.3,0,27.7,12.4,27.7,27.7
		v40.7C374.7,157.5,362.3,169.9,347,169.9z"/>
	<g>
		
			<linearGradient id="SVGID_00000045589534236286068740000009510900130647410569_" gradientUnits="userSpaceOnUse" x1="287.1769" y1="123.2775" x2="351.881" y2="123.2775">
			<stop  offset="5.791949e-07" style="stop-color:#A78BFA"/>
			<stop  offset="1" style="stop-color:#6D28D9"/>
		</linearGradient>
		<path style="fill:url(#SVGID_00000045589534236286068740000009510900130647410569_);" d="M319.5,155.6
			c-17.8,0-32.4-14.5-32.4-32.4c0-17.8,14.5-32.4,32.4-32.4c17.8,0,32.4,14.5,32.4,32.4C351.9,141.1,337.4,155.6,319.5,155.6z
			 M319.5,97.4c-14.3,0-25.9,11.6-25.9,25.9c0,14.3,11.6,25.9,25.9,25.9c14.3,0,25.9-11.6,25.9-25.9
			C345.4,109,333.8,97.4,319.5,97.4z"/>
	</g>
	<rect x="177.8" y="99.4" class="st8" width="88.4" height="7.8"/>
	<rect x="190.8" y="119.4" class="st8" width="75.4" height="7.8"/>
	<rect x="145" y="139.4" class="st8" width="121.2" height="7.8"/>
	<g class="st9">
		
			<linearGradient id="SVGID_00000125562023340903122970000016077631146715148950_" gradientUnits="userSpaceOnUse" x1="290.5967" y1="299.4174" x2="290.5967" y2="112.9437">
			<stop  offset="1.298195e-07" style="stop-color:#A78BFA"/>
			<stop  offset="0.9993" style="stop-color:#7C3AED"/>
		</linearGradient>
		<path style="fill:url(#SVGID_00000125562023340903122970000016077631146715148950_);" d="M336.1,291.7h-90.9
			c-7.9,0-14.3-6.4-14.3-14.3v-81.7c0-7.9,6.4-14.3,14.3-14.3h90.9c7.9,0,14.3,6.4,14.3,14.3v81.7
			C350.3,285.3,343.9,291.7,336.1,291.7z"/>
	</g>
	<g>
		<rect x="247" y="262.7" class="st8" width="40.6" height="4.6"/>
	</g>
	<g>
		<rect x="247" y="262.7" class="st11" width="25" height="4.6"/>
	</g>
	<g>
		<rect x="247" y="272.4" class="st8" width="63.3" height="4.6"/>
	</g>
	<g>
		<rect x="247" y="272.4" class="st11" width="35.4" height="4.6"/>
	</g>
	<g>
		<path class="st8" d="M338,269.9c0,5.3-4.3,9.6-9.6,9.6c-5.3,0-9.6-4.3-9.6-9.6c0-5.3,4.3-9.6,9.6-9.6
			C333.8,260.3,338,264.6,338,269.9z"/>
	</g>
	<g>
		<polygon class="st12" points="327.6,274.3 323.3,270.1 325.2,268.2 327.6,270.6 331.8,266.4 333.7,268.2 		"/>
	</g>
	<polygon class="st8" points="317.3,221.2 272,195 272,247.3 	"/>
	<g>
		<g>
			<g>
				<path class="st13" d="M254.6,371c0,0,8.4,3.8,12.2,5.1c3.8,1.3,17.6-0.2,19.1,1c1.5,1.2,1.6,5.7-0.6,6.5
					c-2.2,0.8-18.7,4.9-24.5,4.3c-5.8-0.6-15.9,3.3-18.3,2.8c-2.4-0.5-2.6-14.1-2.1-17.2C241,370.3,254.6,371,254.6,371z"/>
			</g>
		</g>
		<g>
			<g>
				<path class="st14" d="M252.7,365.5l1.9,5.4c0,0-10.2,3.6-14.2,2.5l-1.3-5.5L252.7,365.5z"/>
			</g>
		</g>
		<g>
			<g>
				<path class="st15" d="M231.9,375.8c0,0,8,4.9,11.6,6.7c3.6,1.8,17.5,2.1,18.9,3.4c1.4,1.4,1,5.8-1.3,6.3
					c-2.3,0.5-19.1,2.4-24.8,1.1c-5.7-1.3-16.1,1.3-18.5,0.5c-2.3-0.8-1.1-14.3-0.2-17.4C218.4,373.4,231.9,375.8,231.9,375.8z"/>
			</g>
		</g>
		<g>
			<g>
				<path class="st14" d="M230.7,370.2l1.2,5.7c0,0-10.5,2.3-14.4,0.7l-0.7-5.7L230.7,370.2z"/>
			</g>
		</g>
		<path class="st16" d="M150.8,268.4c0,0,36.3,0.3,40.8,1c4.8,0.7,23.7,1.3,26,4.8c23,35,38.1,92.2,38.1,92.2l-18.2,3.6
			c0,0-17.6-34.1-25-51.9c-6.6-15.9-12.3-20-26.2-19.7c-13.9,0.4-58.4-2.7-84-5.9L150.8,268.4z"/>
		<path class="st17" d="M147,184.1c0,0,10.8,23.2,9.9,31.8c-0.9,8.6-10.1,32.5-10.8,37.3c-0.7,4.8,4,14.3,4,14.3L101.6,290
			c0,0-2-14.2,0-30.6c2-16.4,3.4-33.9,5.6-43.2c7.4-31.6,26.8-44.6,26.8-44.6L147,184.1z"/>
		<path class="st18" d="M150.1,267.6c0,0,36.3,0.3,40.8,0.9c4.8,0.7,24.2,1,26,4.8c13.2,26.7,16.2,97.8,16.2,97.8l-17,2.1
			c0,0-8.3-36.1-11-53.3c-2.6-17.2-5.9-19.7-19.8-19.4c-13.9,0.4-68.4,14.3-83.8-10.4L150.1,267.6z"/>
		<path class="st14" d="M118.7,206.1c0.1-4.5,2.7-23.9,13.7-22.6c10.9,1.3,9.7,14.4,8.7,24.3c-1.1,10.4-6.4,35.7-4.7,37.1
			c1.7,1.3,14.7,5.2,17.5,5.8c2.8,0.6,19.6,4.7,21,5.1c1.4,0.4-1.4,6.9-1.4,6.9s-46.6-1.4-54.4-5.1
			C111.3,253.9,118.7,206.1,118.7,206.1z"/>
		<path class="st14" d="M174.8,255.7c0,0,3.5,0.9,5.1,1c1.7,0.1,9.6-3,12-2.5c2.5,0.5,18.3,8.1,19,8.6c0.7,0.5-0.4,1.6-0.4,1.6
			l-37.1-1.3L174.8,255.7z"/>
		
			<rect x="159.4" y="263.3" transform="matrix(0.9992 4.037605e-02 -4.037605e-02 0.9992 10.9015 -7.4649)" class="st19" width="61.7" height="5.7"/>
		
			<rect x="197.9" y="237.4" transform="matrix(0.338 -0.9412 0.9412 0.338 -74.6643 374.3365)" class="st19" width="61.7" height="5.7"/>
		<path class="st14" d="M175.2,147.6c0,0,1.2,9.5-1.4,9.9c-2.1,0.3-1.4,9.5-1.4,11s-4,0.9-5.1,1.5c-1.1,0.5-7.3,9.6-10.4,8.7
			c-3.1-0.9-14.8-10.9-17-16.1s1.6-23.7,6.9-30.1C152.1,126.2,173.1,130.9,175.2,147.6z"/>
		<path class="st14" d="M150.9,171.9c0,0-0.3,0.8-0.8,2.1c-0.3,1-0.8,2.2-1.2,3.5c-1.2,3.5-2.5,7.8-2.6,9.9
			c-0.2,3.9-12.4-15.9-12.4-15.9s4.4-11.9,7.1-25.8C143.8,131.9,150.9,171.9,150.9,171.9z"/>
		<path class="st20" d="M175.4,149.6c0,0,7.7-6.8,2.3-16.2c-5.4-9.4-24.2-4-26-4.2c-1.8-0.2-11.2-3.2-13,14.9
			c-1.8,18.1-0.7,15.4-0.7,15.4s4.6-7.8,7.9-6.5c3.3,1.3,9.1,1.9,9.1,1.9s0.1-8.5,4.9-7.8C164.5,147.7,171.7,146.3,175.4,149.6z"/>
		<path class="st17" d="M117.9,206.9l25,0.9c0,0,3.9-26-10.5-25.5C118,182.8,117.9,206.9,117.9,206.9z"/>
		<path class="st14" d="M151.9,148.8c0-1.2,0.5-6-4.2-4.9c-4.7,1.1-1.9,11.6-1.3,12C147,156.3,151.8,158.6,151.9,148.8z"/>
		
			<linearGradient id="SVGID_00000100372192721863682910000000803818839469882301_" gradientUnits="userSpaceOnUse" x1="78.4376" y1="345.92" x2="183.7868" y2="345.92">
			<stop  offset="0" style="stop-color:#475569"/>
			<stop  offset="0.9999" style="stop-color:#1E293B"/>
		</linearGradient>
		
			<rect x="78.4" y="299.5" style="fill:url(#SVGID_00000100372192721863682910000000803818839469882301_);" width="105.3" height="92.8"/>
		<path class="st14" d="M134,171.6c0,0,21.4,38.7,20.9,33.2c-0.4-4.3-9.7-25-9.7-25L134,171.6z"/>
		<path class="st22" d="M150.1,174.1c-0.3,1-0.8,2.2-1.2,3.5c-4.3-5.4-7.3-11.5-8.2-13.4C142.5,167.4,150.1,174.1,150.1,174.1z"/>
	</g>
</g>
</svg>
