<?xml version="1.0" encoding="utf-8"?>
<!-- Generator: Adobe Illustrator 26.2.1, SVG Export Plug-In . SVG Version: 6.00 Build 0)  -->
<svg version="1.1" id="Layer_1" xmlns="http://www.w3.org/2000/svg" xmlns:xlink="http://www.w3.org/1999/xlink" x="0px" y="0px"
	 viewBox="0 0 500 500" style="enable-background:new 0 0 500 500;" xml:space="preserve">
<style type="text/css">
	.st0{filter:url(#Adobe_OpacityMaskFilter);}
	.st1{filter:url(#Adobe_OpacityMaskFilter_00000011753057828741655830000001783911478211273605_);}
	.st2{mask:url(#SVGID_1_);fill:url(#SVGID_00000066512024820742832250000016650973851232913039_);}
	.st3{opacity:0.72;fill:url(#SVGID_00000046330475760688041240000017019173526935309455_);}
	.st4{fill:url(#SVGID_00000124127102181244369020000014711791545769864600_);}
	.st5{fill:#8B5CF6;}
	.st6{fill:#1E293B;}
	.st7{fill:#FFFFFF;}
	.st8{fill:#323657;}
	.st9{fill:#A78BFA;}
	.st10{filter:url(#Adobe_OpacityMaskFilter_00000128455143236022548570000018033115602484260763_);}
	.st11{filter:url(#Adobe_OpacityMaskFilter_00000123400252913723427070000009374251088259072663_);}
	
		.st12{mask:url(#SVGID_00000068665162092984956640000001909857954519333537_);fill:url(#SVGID_00000170243428781122499770000004187679901431821489_);}
	.st13{fill:url(#SVGID_00000096032938256369353660000016614917451456140461_);}
	.st14{filter:url(#Adobe_OpacityMaskFilter_00000150081118897926958370000015936906766556321415_);}
	.st15{filter:url(#Adobe_OpacityMaskFilter_00000132075433604800836840000017560115207965836172_);}
	
		.st16{mask:url(#SVGID_00000079451142505923103460000011637893107491186579_);fill:url(#SVGID_00000124868551444119494430000004915342751359295646_);}
	.st17{opacity:0.72;fill:#C4B5FD;}
	.st18{filter:url(#Adobe_OpacityMaskFilter_00000067948220930867887090000009221515801728559760_);}
	.st19{filter:url(#Adobe_OpacityMaskFilter_00000046329680362174473770000008234334464012998574_);}
	
		.st20{mask:url(#SVGID_00000116231981155912944200000007794388330041398415_);fill:url(#SVGID_00000096052357425297783060000008789103328849021076_);}
	.st21{filter:url(#Adobe_OpacityMaskFilter_00000142879820110084691230000000788476240004120503_);}
	.st22{filter:url(#Adobe_OpacityMaskFilter_00000155125649855715476950000009539388207482906496_);}
	
		.st23{mask:url(#SVGID_00000183215374083359964480000014881394251909555627_);fill:url(#SVGID_00000039828954327899434230000014218694912006683068_);}
	.st24{fill:url(#SVGID_00000106145377410666378100000005768337826690143926_);}
	.st25{filter:url(#Adobe_OpacityMaskFilter_00000160155738473715855780000001087482304841289859_);}
	.st26{filter:url(#Adobe_OpacityMaskFilter_00000173130421115055140680000004706279646101446574_);}
	
		.st27{mask:url(#SVGID_00000072281620288789981740000001446747253967548591_);fill:url(#SVGID_00000034061234840792931180000012715586942075509392_);}
	.st28{fill:url(#SVGID_00000160900177773040281670000008717600268743651999_);}
	.st29{filter:url(#Adobe_OpacityMaskFilter_00000088812957814641725800000011941793718486344325_);}
	.st30{filter:url(#Adobe_OpacityMaskFilter_00000078042027471123987520000011729815946430978436_);}
	
		.st31{mask:url(#SVGID_00000131364751366956711330000015060540142824559783_);fill:url(#SVGID_00000134244181440162533640000011978473501442768261_);}
	.st32{opacity:0.72;fill:url(#SVGID_00000149378832560601094860000017582463953772241325_);}
	.st33{filter:url(#Adobe_OpacityMaskFilter_00000158717551549515736790000006706466024012584608_);}
	.st34{filter:url(#Adobe_OpacityMaskFilter_00000010311969997957260530000006411335812028225201_);}
	
		.st35{mask:url(#SVGID_00000035498006620049829140000016638696836439773880_);fill:url(#SVGID_00000030477872238675976280000003887730784669360016_);}
	.st36{opacity:0.72;fill:url(#SVGID_00000130625793722854905310000015730201857919298718_);}
	.st37{fill:url(#SVGID_00000029017186891673090920000002722372318398116274_);}
	.st38{filter:url(#Adobe_OpacityMaskFilter_00000082348751383361869980000006135450149731181450_);}
	.st39{filter:url(#Adobe_OpacityMaskFilter_00000129173033623800874440000005598974006583086234_);}
	
		.st40{mask:url(#SVGID_00000179640316200869338510000006234688810432927623_);fill:url(#SVGID_00000042014134053202004140000000966507037170237619_);}
	.st41{opacity:0.72;fill:url(#SVGID_00000176726455044941068340000010825433358524251540_);}
	.st42{fill:url(#SVGID_00000115513649931235427260000017871639713769852857_);}
	.st43{fill:url(#SVGID_00000090267561749196809120000013373376725995269544_);}
	.st44{fill:url(#SVGID_00000076594863547752853390000008736800963170207419_);}
	.st45{opacity:0.72;}
	.st46{filter:url(#Adobe_OpacityMaskFilter_00000100378855151687232640000002824176262822845630_);}
	.st47{filter:url(#Adobe_OpacityMaskFilter_00000152265367954823004050000006799803106176659843_);}
	
		.st48{mask:url(#SVGID_00000155140521307242668560000016499540514651771808_);fill:url(#SVGID_00000003807827050833743210000012157598722485899657_);}
	.st49{fill:url(#SVGID_00000041975765279172460440000017193470130250520217_);}
	.st50{fill:url(#SVGID_00000034074045651126990980000010099353986399509914_);}
	.st51{fill:url(#SVGID_00000000216957888938488990000006463682699715976066_);}
	.st52{fill:url(#SVGID_00000098187836325257042430000000510244214438965918_);}
	.st53{filter:url(#Adobe_OpacityMaskFilter_00000010296482797347072720000017538115523514566580_);}
	.st54{filter:url(#Adobe_OpacityMaskFilter_00000077326175948939077320000017104436948348145597_);}
	
		.st55{mask:url(#SVGID_00000039128974238051997460000005664933113277441435_);fill:url(#SVGID_00000126315042457837058360000010513509845795268024_);}
	.st56{opacity:0.72;fill:url(#SVGID_00000155142415906545205730000008855374515920720815_);}
	.st57{fill:url(#SVGID_00000163752828013114757220000009367130756180149949_);}
	.st58{fill:url(#SVGID_00000035510813938313655900000007415109722204082313_);}
	.st59{fill:#64748B;}
	.st60{fill:#0F172A;}
	.st61{fill:#5478B3;}
	.st62{fill:#EEA886;}
	.st63{fill:#C5CDDB;}
	.st64{fill:#E55353;}
	.st65{fill:#434343;}
	.st66{fill:#525252;}
	.st67{fill:#333333;}
	.st68{fill:#A77860;}
</style>
<g>
	<defs>
		<filter id="Adobe_OpacityMaskFilter" filterUnits="userSpaceOnUse" x="92.2" y="59.5" width="284" height="288.6">
			<feFlood  style="flood-color:white;flood-opacity:1" result="back"/>
			<feBlend  in="SourceGraphic" in2="back" mode="normal"/>
		</filter>
	</defs>
	<mask maskUnits="userSpaceOnUse" x="92.2" y="59.5" width="284" height="288.6" id="SVGID_1_">
		<g class="st0">
			<defs>
				
					<filter id="Adobe_OpacityMaskFilter_00000078035308793692293230000010439297678143069094_" filterUnits="userSpaceOnUse" x="92.2" y="59.5" width="284" height="288.6">
					<feFlood  style="flood-color:white;flood-opacity:1" result="back"/>
					<feBlend  in="SourceGraphic" in2="back" mode="normal"/>
				</filter>
			</defs>
			<mask maskUnits="userSpaceOnUse" x="92.2" y="59.5" width="284" height="288.6" id="SVGID_1_">
				<g style="filter:url(#Adobe_OpacityMaskFilter_00000078035308793692293230000010439297678143069094_);">
				</g>
			</mask>
			
				<linearGradient id="SVGID_00000008863178485322180000000009761339244544713658_" gradientUnits="userSpaceOnUse" x1="234.2637" y1="40.1393" x2="234.2637" y2="405.149">
				<stop  offset="0" style="stop-color:#000000"/>
				<stop  offset="0.2021" style="stop-color:#FFFFFF"/>
				<stop  offset="1" style="stop-color:#FFFFFF"/>
			</linearGradient>
			<path style="mask:url(#SVGID_1_);fill:url(#SVGID_00000008863178485322180000000009761339244544713658_);" d="M342.7,348.2H125.8
				c-18.5,0-33.5-15-33.5-33.5V93.1c0-18.5,15-33.5,33.5-33.5h216.9c18.5,0,33.5,15,33.5,33.5v221.5
				C376.3,333.1,361.3,348.2,342.7,348.2z"/>
		</g>
	</mask>
	
		<linearGradient id="SVGID_00000065777658893456042440000015683812531765981331_" gradientUnits="userSpaceOnUse" x1="234.2637" y1="40.1393" x2="234.2637" y2="405.149">
		<stop  offset="0" style="stop-color:#C4B5FD"/>
		<stop  offset="0.2018" style="stop-color:#A78BFA"/>
		<stop  offset="1" style="stop-color:#8B5CF6"/>
	</linearGradient>
	<path style="opacity:0.72;fill:url(#SVGID_00000065777658893456042440000015683812531765981331_);" d="M342.7,348.2H125.8
		c-18.5,0-33.5-15-33.5-33.5V93.1c0-18.5,15-33.5,33.5-33.5h216.9c18.5,0,33.5,15,33.5,33.5v221.5
		C376.3,333.1,361.3,348.2,342.7,348.2z"/>
	<g>
		<g>
			<g>
				
					<linearGradient id="SVGID_00000141428954024871672890000002878076096017432725_" gradientUnits="userSpaceOnUse" x1="125.2377" y1="257.5722" x2="203.9009" y2="257.5722">
					<stop  offset="0" style="stop-color:#D5E4FF"/>
					<stop  offset="1" style="stop-color:#EDFFFE"/>
				</linearGradient>
				<path style="fill:url(#SVGID_00000141428954024871672890000002878076096017432725_);" d="M201.6,244.3
					c-5.9-16.5-21.6-26.6-38.2-26.1c-4,0.1-8.1,0.9-12.1,2.3c-12.1,4.3-20.7,13.9-24.3,25.3c-2.5,7.9-2.5,16.6,0.5,25
					c0.3,0.8,0.6,1.7,1,2.5c1.6,3.6,3.6,6.9,6.1,9.8c10.3,12.1,27.4,17.2,43.2,11.5C198.3,287.3,208.9,264.8,201.6,244.3z
					 M174.5,285.3c-11.9,4.2-24.7,0.4-32.4-8.7c-1.8-2.2-3.4-4.6-4.6-7.3c-0.3-0.6-0.5-1.2-0.7-1.8c-2.2-6.3-2.2-12.8-0.4-18.7
					c2.7-8.5,9.2-15.7,18.2-19c3-1.1,6-1.6,9-1.7c12.4-0.4,24.2,7.2,28.6,19.5C197.8,263,189.8,279.8,174.5,285.3z"/>
			</g>
		</g>
		<g>
			<g>
				<path class="st5" d="M136.4,248.8l-9.4-2.9c3.6-11.4,12.2-21,24.3-25.3c4-1.4,8.1-2.2,12.1-2.3l0.3,9.8c-3,0.1-6.1,0.6-9,1.7
					C145.6,233.1,139.1,240.3,136.4,248.8z"/>
			</g>
		</g>
		<g>
			<g>
				<path class="st6" d="M137.5,269.3l-9,3.9c-0.3-0.8-0.7-1.6-1-2.5c-3-8.4-3-17.1-0.5-25l9.4,2.9c-1.8,5.9-1.9,12.4,0.4,18.7
					C137,268.1,137.3,268.7,137.5,269.3z"/>
			</g>
		</g>
		<g>
			<g>
				<path class="st6" d="M134.6,283.1c-2.5-2.9-4.5-6.2-6.1-9.8l9-3.9c1.2,2.7,2.7,5.2,4.6,7.3L134.6,283.1z"/>
			</g>
		</g>
	</g>
	<rect x="131.4" y="316.2" class="st7" width="59.8" height="4.6"/>
	<rect x="131.4" y="326" class="st7" width="44.8" height="4.6"/>
	<g>
		<g>
			<g>
				<path class="st8" d="M413.9,270.6C413.9,270.6,413.9,270.6,413.9,270.6C413.8,270.6,413.8,270.6,413.9,270.6z"/>
			</g>
		</g>
	</g>
	<g>
		<g>
			<g>
				<path class="st7" d="M336.6,273.3c4.9-12.4,1-26-8.7-34.1c-2.4-1.9-5-3.6-8-4.7c-9.1-3.6-18.8-2.4-26.6,2.3
					c-5.4,3.3-9.7,8.2-12.2,14.5c-0.2,0.6-0.5,1.3-0.7,1.9c-0.9,2.9-1.4,5.8-1.4,8.7c-0.2,12.1,7,23.6,18.9,28.3
					C313.2,296.2,330.6,288.7,336.6,273.3z M300.6,283.2c-8.9-3.5-14.3-12.1-14.2-21.2c0-2.2,0.4-4.3,1.1-6.5
					c0.2-0.5,0.3-0.9,0.5-1.4c1.9-4.7,5.2-8.4,9.2-10.9c5.8-3.5,13.1-4.4,19.9-1.7c2.2,0.9,4.3,2.1,6,3.6c7.3,6,10.2,16.3,6.6,25.5
					C325.1,282.1,312.1,287.7,300.6,283.2z"/>
			</g>
		</g>
		<g>
			<g>
				<path class="st6" d="M297.2,243.2l-3.9-6.4c7.7-4.7,17.5-5.9,26.6-2.3c3,1.2,5.7,2.8,8,4.7l-4.8,5.8c-1.8-1.5-3.8-2.7-6-3.6
					C310.3,238.8,303,239.6,297.2,243.2z"/>
			</g>
		</g>
		<g>
			<g>
				<path class="st5" d="M287.5,255.5l-7.1-2.3c0.2-0.6,0.4-1.3,0.7-1.9c2.5-6.3,6.9-11.3,12.2-14.5l3.9,6.4
					c-4,2.4-7.3,6.2-9.2,10.9C287.8,254.5,287.7,255,287.5,255.5z"/>
			</g>
		</g>
		<g>
			<g>
				<path class="st9" d="M278.9,261.8c0-2.9,0.5-5.8,1.4-8.7l7.1,2.3c-0.7,2.1-1,4.3-1.1,6.5L278.9,261.8z"/>
			</g>
		</g>
	</g>
	<rect x="292.4" y="316" class="st7" width="33" height="4.6"/>
	<rect x="284.4" y="325.9" class="st7" width="49" height="4.6"/>
	<g>
		<defs>
			
				<filter id="Adobe_OpacityMaskFilter_00000064341455655430329020000011642097150259318966_" filterUnits="userSpaceOnUse" x="386.8" y="231.9" width="1" height="109.1">
				<feFlood  style="flood-color:white;flood-opacity:1" result="back"/>
				<feBlend  in="SourceGraphic" in2="back" mode="normal"/>
			</filter>
		</defs>
		
			<mask maskUnits="userSpaceOnUse" x="386.8" y="231.9" width="1" height="109.1" id="SVGID_00000107554152199340306070000003619105790817993624_">
			<g style="filter:url(#Adobe_OpacityMaskFilter_00000064341455655430329020000011642097150259318966_);">
				<defs>
					
						<filter id="Adobe_OpacityMaskFilter_00000165195857925827157750000015983645124397383587_" filterUnits="userSpaceOnUse" x="386.8" y="231.9" width="1" height="109.1">
						<feFlood  style="flood-color:white;flood-opacity:1" result="back"/>
						<feBlend  in="SourceGraphic" in2="back" mode="normal"/>
					</filter>
				</defs>
				
					<mask maskUnits="userSpaceOnUse" x="386.8" y="231.9" width="1" height="109.1" id="SVGID_00000107554152199340306070000003619105790817993624_">
					<g style="filter:url(#Adobe_OpacityMaskFilter_00000165195857925827157750000015983645124397383587_);">
					</g>
				</mask>
				
					<linearGradient id="SVGID_00000093858929876153761930000013322412182974823299_" gradientUnits="userSpaceOnUse" x1="389.8084" y1="336.1364" x2="367.4005" y2="-104.8472">
					<stop  offset="0" style="stop-color:#000000"/>
					<stop  offset="0.2021" style="stop-color:#FFFFFF"/>
					<stop  offset="1" style="stop-color:#FFFFFF"/>
				</linearGradient>
				
					<rect x="386.8" y="231.9" style="mask:url(#SVGID_00000107554152199340306070000003619105790817993624_);fill:url(#SVGID_00000093858929876153761930000013322412182974823299_);" width="1" height="109.1"/>
			</g>
		</mask>
		
			<linearGradient id="SVGID_00000023240346556276619730000014017911556803675838_" gradientUnits="userSpaceOnUse" x1="389.8084" y1="336.1364" x2="367.4005" y2="-104.8472">
			<stop  offset="0" style="stop-color:#E9D5FF"/>
			<stop  offset="0.2019" style="stop-color:#C4B5FD"/>
			<stop  offset="1" style="stop-color:#A78BFA"/>
		</linearGradient>
		
			<rect x="386.8" y="231.9" style="fill:url(#SVGID_00000023240346556276619730000014017911556803675838_);" width="1" height="109.1"/>
	</g>
	<defs>
		
			<filter id="Adobe_OpacityMaskFilter_00000139981704301811029860000006960850359753234075_" filterUnits="userSpaceOnUse" x="387.3" y="216.8" width="24.6" height="3.9">
			<feFlood  style="flood-color:white;flood-opacity:1" result="back"/>
			<feBlend  in="SourceGraphic" in2="back" mode="normal"/>
		</filter>
	</defs>
	
		<mask maskUnits="userSpaceOnUse" x="387.3" y="216.8" width="24.6" height="3.9" id="SVGID_00000052079659013244330180000000592981315489365674_">
		<g style="filter:url(#Adobe_OpacityMaskFilter_00000139981704301811029860000006960850359753234075_);">
			<defs>
				
					<filter id="Adobe_OpacityMaskFilter_00000014621036742686652470000008297193307522751126_" filterUnits="userSpaceOnUse" x="387.3" y="216.8" width="24.6" height="3.9">
					<feFlood  style="flood-color:white;flood-opacity:1" result="back"/>
					<feBlend  in="SourceGraphic" in2="back" mode="normal"/>
				</filter>
			</defs>
			
				<mask maskUnits="userSpaceOnUse" x="387.3" y="216.8" width="24.6" height="3.9" id="SVGID_00000052079659013244330180000000592981315489365674_">
				<g style="filter:url(#Adobe_OpacityMaskFilter_00000014621036742686652470000008297193307522751126_);">
				</g>
			</mask>
			
				<linearGradient id="SVGID_00000182501245892127129140000006501843794041062816_" gradientUnits="userSpaceOnUse" x1="402.6044" y1="247.9342" x2="371.2332" y2="-53.6772">
				<stop  offset="0" style="stop-color:#000000"/>
				<stop  offset="0.2021" style="stop-color:#FFFFFF"/>
				<stop  offset="1" style="stop-color:#FFFFFF"/>
			</linearGradient>
			
				<rect x="387.3" y="216.8" style="mask:url(#SVGID_00000052079659013244330180000000592981315489365674_);fill:url(#SVGID_00000182501245892127129140000006501843794041062816_);" width="24.6" height="3.9"/>
		</g>
	</mask>
	<rect x="387.3" y="216.8" class="st17" width="24.6" height="3.9"/>
	<defs>
		
			<filter id="Adobe_OpacityMaskFilter_00000150785892882823681070000016022019008566605469_" filterUnits="userSpaceOnUse" x="387.3" y="224.1" width="34.9" height="3.9">
			<feFlood  style="flood-color:white;flood-opacity:1" result="back"/>
			<feBlend  in="SourceGraphic" in2="back" mode="normal"/>
		</filter>
	</defs>
	
		<mask maskUnits="userSpaceOnUse" x="387.3" y="224.1" width="34.9" height="3.9" id="SVGID_00000155128730086891976750000014780961688839888005_">
		<g style="filter:url(#Adobe_OpacityMaskFilter_00000150785892882823681070000016022019008566605469_);">
			<defs>
				
					<filter id="Adobe_OpacityMaskFilter_00000078002629568381310490000007400328290954327696_" filterUnits="userSpaceOnUse" x="387.3" y="224.1" width="34.9" height="3.9">
					<feFlood  style="flood-color:white;flood-opacity:1" result="back"/>
					<feBlend  in="SourceGraphic" in2="back" mode="normal"/>
				</filter>
			</defs>
			
				<mask maskUnits="userSpaceOnUse" x="387.3" y="224.1" width="34.9" height="3.9" id="SVGID_00000155128730086891976750000014780961688839888005_">
				<g style="filter:url(#Adobe_OpacityMaskFilter_00000078002629568381310490000007400328290954327696_);">
				</g>
			</mask>
			
				<linearGradient id="SVGID_00000152242698779759937610000017231663898125268882_" gradientUnits="userSpaceOnUse" x1="406.9398" y1="247.483" x2="375.5685" y2="-54.1282">
				<stop  offset="0" style="stop-color:#000000"/>
				<stop  offset="0.2021" style="stop-color:#FFFFFF"/>
				<stop  offset="1" style="stop-color:#FFFFFF"/>
			</linearGradient>
			
				<rect x="387.3" y="224.1" style="mask:url(#SVGID_00000155128730086891976750000014780961688839888005_);fill:url(#SVGID_00000152242698779759937610000017231663898125268882_);" width="34.9" height="3.9"/>
		</g>
	</mask>
	<rect x="387.3" y="224.1" class="st17" width="34.9" height="3.9"/>
	<g>
		<defs>
			
				<filter id="Adobe_OpacityMaskFilter_00000170241127668424782780000009203482408140897924_" filterUnits="userSpaceOnUse" x="69.5" y="346.6" width="268.9" height="7.5">
				<feFlood  style="flood-color:white;flood-opacity:1" result="back"/>
				<feBlend  in="SourceGraphic" in2="back" mode="normal"/>
			</filter>
		</defs>
		
			<mask maskUnits="userSpaceOnUse" x="69.5" y="346.6" width="268.9" height="7.5" id="SVGID_00000140005038535833748650000013918663548826998942_">
			<g style="filter:url(#Adobe_OpacityMaskFilter_00000170241127668424782780000009203482408140897924_);">
				<defs>
					
						<filter id="Adobe_OpacityMaskFilter_00000111905148488277605330000006365982980322209186_" filterUnits="userSpaceOnUse" x="69.5" y="346.6" width="268.9" height="7.5">
						<feFlood  style="flood-color:white;flood-opacity:1" result="back"/>
						<feBlend  in="SourceGraphic" in2="back" mode="normal"/>
					</filter>
				</defs>
				
					<mask maskUnits="userSpaceOnUse" x="69.5" y="346.6" width="268.9" height="7.5" id="SVGID_00000140005038535833748650000013918663548826998942_">
					<g style="filter:url(#Adobe_OpacityMaskFilter_00000111905148488277605330000006365982980322209186_);">
					</g>
				</mask>
				
					<linearGradient id="SVGID_00000142896642717696421120000011943954628518383257_" gradientUnits="userSpaceOnUse" x1="69.4559" y1="350.3249" x2="338.3457" y2="350.3249">
					<stop  offset="0" style="stop-color:#FFFFFF"/>
					<stop  offset="0.8171" style="stop-color:#2F2F2F"/>
					<stop  offset="1" style="stop-color:#000000"/>
				</linearGradient>
				
					<polygon style="mask:url(#SVGID_00000140005038535833748650000013918663548826998942_);fill:url(#SVGID_00000142896642717696421120000011943954628518383257_);" points="
					338.3,354.1 90.9,354.1 84.8,347.9 69.5,347.9 69.5,346.6 85.3,346.6 91.5,352.7 338.3,352.7 				"/>
			</g>
		</mask>
		
			<linearGradient id="SVGID_00000008107152268964476210000006829426144270805663_" gradientUnits="userSpaceOnUse" x1="69.4559" y1="350.3249" x2="338.3457" y2="350.3249">
			<stop  offset="0" style="stop-color:#D5E4FF"/>
			<stop  offset="0.8171" style="stop-color:#E9FAFE"/>
			<stop  offset="1" style="stop-color:#EDFFFE"/>
		</linearGradient>
		<polygon style="fill:url(#SVGID_00000008107152268964476210000006829426144270805663_);" points="338.3,354.1 90.9,354.1 
			84.8,347.9 69.5,347.9 69.5,346.6 85.3,346.6 91.5,352.7 338.3,352.7 		"/>
	</g>
	<g>
		<defs>
			
				<filter id="Adobe_OpacityMaskFilter_00000038375993531383207120000007678329427786380445_" filterUnits="userSpaceOnUse" x="79.1" y="22.6" width="183.7" height="187.2">
				<feFlood  style="flood-color:white;flood-opacity:1" result="back"/>
				<feBlend  in="SourceGraphic" in2="back" mode="normal"/>
			</filter>
		</defs>
		
			<mask maskUnits="userSpaceOnUse" x="79.1" y="22.6" width="183.7" height="187.2" id="SVGID_00000015339321710498279960000005809746496708241584_">
			<g style="filter:url(#Adobe_OpacityMaskFilter_00000038375993531383207120000007678329427786380445_);">
				<defs>
					
						<filter id="Adobe_OpacityMaskFilter_00000164501200656331312270000008156795134689030299_" filterUnits="userSpaceOnUse" x="79.1" y="22.6" width="183.7" height="187.2">
						<feFlood  style="flood-color:white;flood-opacity:1" result="back"/>
						<feBlend  in="SourceGraphic" in2="back" mode="normal"/>
					</filter>
				</defs>
				
					<mask maskUnits="userSpaceOnUse" x="79.1" y="22.6" width="183.7" height="187.2" id="SVGID_00000015339321710498279960000005809746496708241584_">
					<g style="filter:url(#Adobe_OpacityMaskFilter_00000164501200656331312270000008156795134689030299_);">
					</g>
				</mask>
				
					<linearGradient id="SVGID_00000031197502490022380590000000821658213607738047_" gradientUnits="userSpaceOnUse" x1="79.061" y1="116.2249" x2="262.7198" y2="116.2249">
					<stop  offset="0" style="stop-color:#FFFFFF"/>
					<stop  offset="0.8171" style="stop-color:#2F2F2F"/>
					<stop  offset="1" style="stop-color:#000000"/>
				</linearGradient>
				
					<polygon style="mask:url(#SVGID_00000015339321710498279960000005809746496708241584_);fill:url(#SVGID_00000031197502490022380590000000821658213607738047_);" points="
					80.4,209.8 79.1,209.8 79.1,31.9 179.7,31.9 189,22.6 262.7,22.6 262.7,24 189.6,24 180.3,33.3 80.4,33.3 				"/>
			</g>
		</mask>
		
			<linearGradient id="SVGID_00000047028020628803849360000018157415777694375073_" gradientUnits="userSpaceOnUse" x1="79.061" y1="116.2249" x2="262.7198" y2="116.2249">
			<stop  offset="0" style="stop-color:#DDD6FE"/>
			<stop  offset="0.817" style="stop-color:#A78BFA"/>
			<stop  offset="0.9997" style="stop-color:#8B5CF6"/>
		</linearGradient>
		<polygon style="fill:url(#SVGID_00000047028020628803849360000018157415777694375073_);" points="80.4,209.8 79.1,209.8 
			79.1,31.9 179.7,31.9 189,22.6 262.7,22.6 262.7,24 189.6,24 180.3,33.3 80.4,33.3 		"/>
	</g>
	<defs>
		
			<filter id="Adobe_OpacityMaskFilter_00000057123809468455350880000011391166895035635371_" filterUnits="userSpaceOnUse" x="239.3" y="32.1" width="202.1" height="17.7">
			<feFlood  style="flood-color:white;flood-opacity:1" result="back"/>
			<feBlend  in="SourceGraphic" in2="back" mode="normal"/>
		</filter>
	</defs>
	
		<mask maskUnits="userSpaceOnUse" x="239.3" y="32.1" width="202.1" height="17.7" id="SVGID_00000147206457527723864630000007535202506718493872_">
		<g style="filter:url(#Adobe_OpacityMaskFilter_00000057123809468455350880000011391166895035635371_);">
			<defs>
				
					<filter id="Adobe_OpacityMaskFilter_00000056394129069940604620000015029724596799346602_" filterUnits="userSpaceOnUse" x="239.3" y="32.1" width="202.1" height="17.7">
					<feFlood  style="flood-color:white;flood-opacity:1" result="back"/>
					<feBlend  in="SourceGraphic" in2="back" mode="normal"/>
				</filter>
			</defs>
			
				<mask maskUnits="userSpaceOnUse" x="239.3" y="32.1" width="202.1" height="17.7" id="SVGID_00000147206457527723864630000007535202506718493872_">
				<g style="filter:url(#Adobe_OpacityMaskFilter_00000056394129069940604620000015029724596799346602_);">
				</g>
			</mask>
			
				<linearGradient id="SVGID_00000023967759376965893080000006658998295111765427_" gradientUnits="userSpaceOnUse" x1="340.3591" y1="3.3906" x2="340.3591" y2="135.1715">
				<stop  offset="0" style="stop-color:#000000"/>
				<stop  offset="0.2021" style="stop-color:#FFFFFF"/>
				<stop  offset="1" style="stop-color:#FFFFFF"/>
			</linearGradient>
			
				<path style="mask:url(#SVGID_00000147206457527723864630000007535202506718493872_);fill:url(#SVGID_00000023967759376965893080000006658998295111765427_);" d="
				M433.5,49.8H247.2c-4.4,0-7.9-3.5-7.9-7.9V40c0-4.4,3.5-7.9,7.9-7.9h186.2c4.4,0,7.9,3.5,7.9,7.9v1.9
				C441.4,46.2,437.9,49.8,433.5,49.8z"/>
		</g>
	</mask>
	
		<linearGradient id="SVGID_00000128459163401304295410000011350960274669847454_" gradientUnits="userSpaceOnUse" x1="340.3591" y1="3.3906" x2="340.3591" y2="135.1715">
		<stop  offset="0" style="stop-color:#C4B5FD"/>
		<stop  offset="0.2009" style="stop-color:#A78BFA"/>
		<stop  offset="0.9999" style="stop-color:#8B5CF6"/>
	</linearGradient>
	<path style="opacity:0.72;fill:url(#SVGID_00000128459163401304295410000011350960274669847454_);" d="M433.5,49.8H247.2
		c-4.4,0-7.9-3.5-7.9-7.9V40c0-4.4,3.5-7.9,7.9-7.9h186.2c4.4,0,7.9,3.5,7.9,7.9v1.9C441.4,46.2,437.9,49.8,433.5,49.8z"/>
	<g>
		<defs>
			
				<filter id="Adobe_OpacityMaskFilter_00000031192453302708080890000018104292738656339864_" filterUnits="userSpaceOnUse" x="239.9" y="65.5" width="199.9" height="142.5">
				<feFlood  style="flood-color:white;flood-opacity:1" result="back"/>
				<feBlend  in="SourceGraphic" in2="back" mode="normal"/>
			</filter>
		</defs>
		
			<mask maskUnits="userSpaceOnUse" x="239.9" y="65.5" width="199.9" height="142.5" id="SVGID_00000067213058658981711360000008795900888967585678_">
			<g style="filter:url(#Adobe_OpacityMaskFilter_00000031192453302708080890000018104292738656339864_);">
				<defs>
					
						<filter id="Adobe_OpacityMaskFilter_00000129916100246088022360000011509548906919203753_" filterUnits="userSpaceOnUse" x="239.9" y="65.5" width="199.9" height="142.5">
						<feFlood  style="flood-color:white;flood-opacity:1" result="back"/>
						<feBlend  in="SourceGraphic" in2="back" mode="normal"/>
					</filter>
				</defs>
				
					<mask maskUnits="userSpaceOnUse" x="239.9" y="65.5" width="199.9" height="142.5" id="SVGID_00000067213058658981711360000008795900888967585678_">
					<g style="filter:url(#Adobe_OpacityMaskFilter_00000129916100246088022360000011509548906919203753_);">
					</g>
				</mask>
				
					<linearGradient id="SVGID_00000136412665162205674930000003634191522283261374_" gradientUnits="userSpaceOnUse" x1="339.8248" y1="284.8321" x2="339.8248" y2="140.8752">
					<stop  offset="0" style="stop-color:#000000"/>
					<stop  offset="0.2021" style="stop-color:#FFFFFF"/>
					<stop  offset="1" style="stop-color:#FFFFFF"/>
				</linearGradient>
				
					<path style="mask:url(#SVGID_00000067213058658981711360000008795900888967585678_);fill:url(#SVGID_00000136412665162205674930000003634191522283261374_);" d="
					M403.6,208H276.1c-20,0-36.2-16.2-36.2-36.2v-70.1c0-20,16.2-36.2,36.2-36.2h127.5c20,0,36.2,16.2,36.2,36.2v70.1
					C439.8,191.8,423.6,208,403.6,208z"/>
			</g>
		</mask>
		
			<linearGradient id="SVGID_00000132791900223132410460000002465425198960581561_" gradientUnits="userSpaceOnUse" x1="339.8248" y1="284.8321" x2="339.8248" y2="140.8752">
			<stop  offset="0" style="stop-color:#8B5CF6"/>
			<stop  offset="0.2021" style="stop-color:#7C3AED"/>
			<stop  offset="1" style="stop-color:#6D28D9"/>
		</linearGradient>
		<path style="opacity:0.72;fill:url(#SVGID_00000132791900223132410460000002465425198960581561_);" d="M403.6,208H276.1
			c-20,0-36.2-16.2-36.2-36.2v-70.1c0-20,16.2-36.2,36.2-36.2h127.5c20,0,36.2,16.2,36.2,36.2v70.1C439.8,191.8,423.6,208,403.6,208
			z"/>
	</g>
	<g>
		<g>
			
				<linearGradient id="SVGID_00000069395225046875603200000007368044873873546934_" gradientUnits="userSpaceOnUse" x1="381.7944" y1="109.5911" x2="388.0431" y2="109.5911">
				<stop  offset="0" style="stop-color:#D5E4FF"/>
				<stop  offset="1" style="stop-color:#EDFFFE"/>
			</linearGradient>
			
				<rect x="381.8" y="92.2" style="fill:url(#SVGID_00000069395225046875603200000007368044873873546934_);" width="6.2" height="34.7"/>
		</g>
		<g>
			<defs>
				
					<filter id="Adobe_OpacityMaskFilter_00000182530176621779585380000008086970739406117798_" filterUnits="userSpaceOnUse" x="381.8" y="104.9" width="6.2" height="22">
					<feFlood  style="flood-color:white;flood-opacity:1" result="back"/>
					<feBlend  in="SourceGraphic" in2="back" mode="normal"/>
				</filter>
			</defs>
			
				<mask maskUnits="userSpaceOnUse" x="381.8" y="104.9" width="6.2" height="22" id="SVGID_00000081619032963714671240000013869275483614293925_">
				<g style="filter:url(#Adobe_OpacityMaskFilter_00000182530176621779585380000008086970739406117798_);">
					<defs>
						
							<filter id="Adobe_OpacityMaskFilter_00000163063240378990472900000012778936651088973969_" filterUnits="userSpaceOnUse" x="381.8" y="104.9" width="6.2" height="22">
							<feFlood  style="flood-color:white;flood-opacity:1" result="back"/>
							<feBlend  in="SourceGraphic" in2="back" mode="normal"/>
						</filter>
					</defs>
					
						<mask maskUnits="userSpaceOnUse" x="381.8" y="104.9" width="6.2" height="22" id="SVGID_00000081619032963714671240000013869275483614293925_">
						<g style="filter:url(#Adobe_OpacityMaskFilter_00000163063240378990472900000012778936651088973969_);">
						</g>
					</mask>
					
						<linearGradient id="SVGID_00000114064789937122117980000001123752054900951200_" gradientUnits="userSpaceOnUse" x1="384.9188" y1="89.4361" x2="384.9188" y2="128.9377">
						<stop  offset="0" style="stop-color:#000000"/>
						<stop  offset="0.2021" style="stop-color:#FFFFFF"/>
						<stop  offset="1" style="stop-color:#FFFFFF"/>
					</linearGradient>
					
						<rect x="381.8" y="104.9" style="mask:url(#SVGID_00000081619032963714671240000013869275483614293925_);fill:url(#SVGID_00000114064789937122117980000001123752054900951200_);" width="6.2" height="22"/>
				</g>
			</mask>
			
				<linearGradient id="SVGID_00000087388622492764629110000007642821003879748493_" gradientUnits="userSpaceOnUse" x1="384.9188" y1="89.4361" x2="384.9188" y2="128.9377">
				<stop  offset="0" style="stop-color:#C4B5FD"/>
				<stop  offset="0.2015" style="stop-color:#A78BFA"/>
				<stop  offset="1" style="stop-color:#8B5CF6"/>
			</linearGradient>
			
				<rect x="381.8" y="104.9" style="opacity:0.72;fill:url(#SVGID_00000087388622492764629110000007642821003879748493_);" width="6.2" height="22"/>
		</g>
	</g>
	<g>
		<g>
			
				<linearGradient id="SVGID_00000110457893794550454900000000048292280640984202_" gradientUnits="userSpaceOnUse" x1="381.7944" y1="171.0905" x2="388.0431" y2="171.0905">
				<stop  offset="0" style="stop-color:#D5E4FF"/>
				<stop  offset="1" style="stop-color:#EDFFFE"/>
			</linearGradient>
			
				<rect x="381.8" y="153.7" style="fill:url(#SVGID_00000110457893794550454900000000048292280640984202_);" width="6.2" height="34.7"/>
		</g>
		<g>
			
				<linearGradient id="SVGID_00000079451961369989773290000011877509505165438370_" gradientUnits="userSpaceOnUse" x1="381.7944" y1="179.3089" x2="388.0431" y2="179.3089">
				<stop  offset="2.171082e-04" style="stop-color:#C4B5FD"/>
				<stop  offset="0.2024" style="stop-color:#A78BFA"/>
				<stop  offset="0.9995" style="stop-color:#8B5CF6"/>
			</linearGradient>
			
				<rect x="381.8" y="170.2" style="fill:url(#SVGID_00000079451961369989773290000011877509505165438370_);" width="6.2" height="18.3"/>
		</g>
	</g>
	<g>
		<g>
			
				<linearGradient id="SVGID_00000058562767481208178840000012763736430145775260_" gradientUnits="userSpaceOnUse" x1="398.2006" y1="109.5911" x2="404.4492" y2="109.5911">
				<stop  offset="0" style="stop-color:#D5E4FF"/>
				<stop  offset="1" style="stop-color:#EDFFFE"/>
			</linearGradient>
			
				<rect x="398.2" y="92.2" style="fill:url(#SVGID_00000058562767481208178840000012763736430145775260_);" width="6.2" height="34.7"/>
		</g>
		<g class="st45">
			<defs>
				
					<filter id="Adobe_OpacityMaskFilter_00000050628754056141034470000005119354217146406047_" filterUnits="userSpaceOnUse" x="398.2" y="101.3" width="6.2" height="25.6">
					<feFlood  style="flood-color:white;flood-opacity:1" result="back"/>
					<feBlend  in="SourceGraphic" in2="back" mode="normal"/>
				</filter>
			</defs>
			
				<mask maskUnits="userSpaceOnUse" x="398.2" y="101.3" width="6.2" height="25.6" id="SVGID_00000089576473326707421950000004190760974385569966_">
				<g style="filter:url(#Adobe_OpacityMaskFilter_00000050628754056141034470000005119354217146406047_);">
					<defs>
						
							<filter id="Adobe_OpacityMaskFilter_00000093863202025189464430000013416235915710398083_" filterUnits="userSpaceOnUse" x="398.2" y="101.3" width="6.2" height="25.6">
							<feFlood  style="flood-color:white;flood-opacity:1" result="back"/>
							<feBlend  in="SourceGraphic" in2="back" mode="normal"/>
						</filter>
					</defs>
					
						<mask maskUnits="userSpaceOnUse" x="398.2" y="101.3" width="6.2" height="25.6" id="SVGID_00000089576473326707421950000004190760974385569966_">
						<g style="filter:url(#Adobe_OpacityMaskFilter_00000093863202025189464430000013416235915710398083_);">
						</g>
					</mask>
					
						<linearGradient id="SVGID_00000129176467499977100750000013862933518925130887_" gradientUnits="userSpaceOnUse" x1="398.2006" y1="114.1353" x2="404.4492" y2="114.1353">
						<stop  offset="0" style="stop-color:#000000"/>
						<stop  offset="0.2021" style="stop-color:#FFFFFF"/>
						<stop  offset="1" style="stop-color:#FFFFFF"/>
					</linearGradient>
					
						<rect x="398.2" y="101.3" style="mask:url(#SVGID_00000089576473326707421950000004190760974385569966_);fill:url(#SVGID_00000129176467499977100750000013862933518925130887_);" width="6.2" height="25.6"/>
				</g>
			</mask>
			
				<linearGradient id="SVGID_00000176751523353771095420000005225167645624558517_" gradientUnits="userSpaceOnUse" x1="398.2006" y1="114.1353" x2="404.4492" y2="114.1353">
				<stop  offset="0" style="stop-color:#C4B5FD"/>
				<stop  offset="0.2019" style="stop-color:#A78BFA"/>
				<stop  offset="0.9996" style="stop-color:#8B5CF6"/>
			</linearGradient>
			
				<rect x="398.2" y="101.3" style="fill:url(#SVGID_00000176751523353771095420000005225167645624558517_);" width="6.2" height="25.6"/>
		</g>
	</g>
	<g>
		<g>
			
				<linearGradient id="SVGID_00000081607038603228141340000006204008335482540185_" gradientUnits="userSpaceOnUse" x1="398.2006" y1="171.0905" x2="404.4492" y2="171.0905">
				<stop  offset="0" style="stop-color:#D5E4FF"/>
				<stop  offset="1" style="stop-color:#EDFFFE"/>
			</linearGradient>
			
				<rect x="398.2" y="153.7" style="fill:url(#SVGID_00000081607038603228141340000006204008335482540185_);" width="6.2" height="34.7"/>
		</g>
		<g>
			
				<linearGradient id="SVGID_00000163073284800911374050000017880580679247520661_" gradientUnits="userSpaceOnUse" x1="398.2006" y1="182.2686" x2="404.4492" y2="182.2686">
				<stop  offset="2.171082e-04" style="stop-color:#C4B5FD"/>
				<stop  offset="0.2024" style="stop-color:#A78BFA"/>
				<stop  offset="0.9995" style="stop-color:#8B5CF6"/>
			</linearGradient>
			
				<rect x="398.2" y="176.1" style="fill:url(#SVGID_00000163073284800911374050000017880580679247520661_);" width="6.2" height="12.4"/>
		</g>
	</g>
	<g>
		<g>
			
				<linearGradient id="SVGID_00000052799133452755556980000017442767619356339851_" gradientUnits="userSpaceOnUse" x1="414.6057" y1="109.5911" x2="420.8543" y2="109.5911">
				<stop  offset="0" style="stop-color:#D5E4FF"/>
				<stop  offset="1" style="stop-color:#EDFFFE"/>
			</linearGradient>
			
				<rect x="414.6" y="92.2" style="fill:url(#SVGID_00000052799133452755556980000017442767619356339851_);" width="6.2" height="34.7"/>
		</g>
		<g>
			<defs>
				
					<filter id="Adobe_OpacityMaskFilter_00000049192770743413787520000001470908512751193757_" filterUnits="userSpaceOnUse" x="414.6" y="110.6" width="6.2" height="16.3">
					<feFlood  style="flood-color:white;flood-opacity:1" result="back"/>
					<feBlend  in="SourceGraphic" in2="back" mode="normal"/>
				</filter>
			</defs>
			
				<mask maskUnits="userSpaceOnUse" x="414.6" y="110.6" width="6.2" height="16.3" id="SVGID_00000111892723755554513320000017690636510062534828_">
				<g style="filter:url(#Adobe_OpacityMaskFilter_00000049192770743413787520000001470908512751193757_);">
					<defs>
						
							<filter id="Adobe_OpacityMaskFilter_00000132808494144688245810000010408942472479557536_" filterUnits="userSpaceOnUse" x="414.6" y="110.6" width="6.2" height="16.3">
							<feFlood  style="flood-color:white;flood-opacity:1" result="back"/>
							<feBlend  in="SourceGraphic" in2="back" mode="normal"/>
						</filter>
					</defs>
					
						<mask maskUnits="userSpaceOnUse" x="414.6" y="110.6" width="6.2" height="16.3" id="SVGID_00000111892723755554513320000017690636510062534828_">
						<g style="filter:url(#Adobe_OpacityMaskFilter_00000132808494144688245810000010408942472479557536_);">
						</g>
					</mask>
					
						<linearGradient id="SVGID_00000034802457409834014950000013518360363543011202_" gradientUnits="userSpaceOnUse" x1="417.73" y1="89.4366" x2="417.73" y2="128.9376">
						<stop  offset="0" style="stop-color:#000000"/>
						<stop  offset="0.2021" style="stop-color:#FFFFFF"/>
						<stop  offset="1" style="stop-color:#FFFFFF"/>
					</linearGradient>
					
						<rect x="414.6" y="110.6" style="mask:url(#SVGID_00000111892723755554513320000017690636510062534828_);fill:url(#SVGID_00000034802457409834014950000013518360363543011202_);" width="6.2" height="16.3"/>
				</g>
			</mask>
			
				<linearGradient id="SVGID_00000154409481537331881000000001312937674617637000_" gradientUnits="userSpaceOnUse" x1="417.73" y1="89.4366" x2="417.73" y2="128.9376">
				<stop  offset="0" style="stop-color:#C4B5FD"/>
				<stop  offset="0.2024" style="stop-color:#A78BFA"/>
				<stop  offset="0.9995" style="stop-color:#8B5CF6"/>
			</linearGradient>
			
				<rect x="414.6" y="110.6" style="opacity:0.72;fill:url(#SVGID_00000154409481537331881000000001312937674617637000_);" width="6.2" height="16.3"/>
		</g>
	</g>
	<g>
		<g>
			
				<linearGradient id="SVGID_00000083051570606171924400000009069776159844263342_" gradientUnits="userSpaceOnUse" x1="414.6057" y1="171.0905" x2="420.8543" y2="171.0905">
				<stop  offset="0" style="stop-color:#D5E4FF"/>
				<stop  offset="1" style="stop-color:#EDFFFE"/>
			</linearGradient>
			
				<rect x="414.6" y="153.7" style="fill:url(#SVGID_00000083051570606171924400000009069776159844263342_);" width="6.2" height="34.7"/>
		</g>
		<g>
			
				<linearGradient id="SVGID_00000031193854136408069520000005374118164548937107_" gradientUnits="userSpaceOnUse" x1="414.6057" y1="177.4428" x2="420.8543" y2="177.4428">
				<stop  offset="2.171082e-04" style="stop-color:#C4B5FD"/>
				<stop  offset="0.2024" style="stop-color:#A78BFA"/>
				<stop  offset="0.9995" style="stop-color:#8B5CF6"/>
			</linearGradient>
			
				<rect x="414.6" y="166.4" style="fill:url(#SVGID_00000031193854136408069520000005374118164548937107_);" width="6.2" height="22"/>
		</g>
	</g>
	<g>
		<g>
			<g>
				<path class="st7" d="M365.6,116.8c-8.3-23.1-30.3-37.3-53.6-36.6c-5.6,0.2-11.3,1.2-16.9,3.2c-16.9,6.1-29.1,19.6-34.1,35.5
					c-3.5,11.1-3.5,23.3,0.7,35c0.4,1.2,0.9,2.3,1.4,3.4c2.2,5.1,5.1,9.7,8.6,13.7c14.4,17,38.4,24.1,60.6,16.2
					C360.9,177,375.8,145.5,365.6,116.8z M327.5,174.3c-16.7,6-34.6,0.6-45.4-12.1c-2.6-3-4.8-6.5-6.4-10.3c-0.4-0.8-0.7-1.7-1-2.6
					c-3.1-8.8-3.1-18-0.5-26.3c3.7-12,12.9-22.1,25.6-26.6c4.2-1.5,8.5-2.3,12.7-2.4c17.4-0.5,34,10.1,40.2,27.4
					C360.2,142.9,349,166.6,327.5,174.3z"/>
			</g>
		</g>
		<g>
			<g>
				<path class="st9" d="M274.1,123l-13.2-4.1c5-15.9,17.1-29.4,34.1-35.5c5.6-2,11.3-3,16.9-3.2l0.4,13.8
					c-4.2,0.1-8.5,0.9-12.7,2.4C287,100.9,277.9,111.1,274.1,123z"/>
			</g>
		</g>
		<g>
			<g>
				<path class="st6" d="M275.7,151.8l-12.7,5.5c-0.5-1.1-0.9-2.3-1.4-3.4c-4.2-11.7-4.2-24-0.7-35l13.2,4.1
					c-2.6,8.3-2.6,17.5,0.5,26.3C275,150.1,275.3,151,275.7,151.8z"/>
			</g>
		</g>
		<g>
			<g>
				<path class="st59" d="M271.6,171.1c-3.4-4-6.3-8.6-8.6-13.7l12.7-5.5c1.7,3.8,3.8,7.3,6.4,10.3L271.6,171.1z"/>
			</g>
		</g>
	</g>
	<g>
		<path class="st60" d="M335,390.9c-0.5,3.2-19.9,16.8-23.7,19.5c-3.1,2.2-5.7,3.2-10.4,4.9c0,0,0,0,0,0
			c-10.5,2.8-76.7,22.5-76.7,22.5c-0.2-0.7-0.3-1.3-0.7-2c-2.5,1-5,1.6-6.6,2.1c-2.5,0.8-22,1.4-26,2.2c-4,0.8-12,2-15.2-1.1
			c-3.2-3.1,2-9.7,6.5-11.4c4.5-1.7,20.8-2.2,23.7-2.5c2.9-0.3,6.8-1.4,8.6-0.8c0.6,0.2,3.2-0.6,6.4-1.7c-0.1-1.2-0.1-2-0.1-2
			l17.4-5L235,385c0,0,7.6-28.5,37.7-6.8c0,0,6.7,2,9,2.6c0.2,0,0.4,0,0.8,0c4.6-0.3,24.4-6.3,31.5-6.3c7.7,0,10.2-0.5,12.9,0.9
			C329.7,376.9,335.4,387.6,335,390.9z"/>
		<path class="st60" d="M304.1,439c-3.2,3.1-11.2,1.8-15.2,1.1c-4-0.8-23.5-1.4-26-2.2c-2.5-0.8-7.1-1.8-10.3-4
			c-0.3-0.2-0.9-0.4-1.7-0.8c0,0,0,0,0,0l-4.9,3.5L178,415.1c-4.1-1.1-7.3-2.8-9.5-4.7c-3.5-3.1-23.2-16.3-23.7-19.5
			c-0.5-3.2,5.2-14,8-15.4c2.8-1.4,5.2-0.9,12.9-0.9c7.7,0,30,6.9,32.3,6.3c1-0.3,3.2-1.4,5.3-2.5c2.5-1.3,4.8-2.7,4.8-2.7
			c33-14.8,36.7,9.4,36.7,9.4l-2,29.8c0,0,2.8,1.4,6.3,3.1l16.4,4.6l-2.1,1.5c0.9,0.3,1.6,0.4,1.8,0.3c1.8-0.6,5.7,0.5,8.6,0.8
			c2.9,0.3,19.2,0.8,23.7,2.5C302.1,429.3,307.3,435.9,304.1,439z"/>
		<path class="st61" d="M203.3,378.3c2.3,0.2,17.7,9.1,21.3,11.2c-5.6-2.9-26.6-8.7-26.6-8.7C199.1,380.6,201.3,379.5,203.3,378.3z"
			/>
		<path class="st60" d="M282.5,380.9c0,0-26.5,6.4-31.4,9.1c0.2-0.2,14-10.6,21.2-12c0,0,7.1,2.2,9.4,2.9
			C281.9,380.9,282.2,380.9,282.5,380.9C282.5,380.9,282.5,380.9,282.5,380.9z"/>
		<path class="st62" d="M304.1,439c-3.2,3.1-11.2,1.8-15.2,1.1c-4-0.8-23.5-1.4-26-2.2c-0.7-0.2-1.6-0.5-2.6-0.8c0,0,0,0,0,0
			c-2.4-0.7-5.4-1.7-7.7-3.2c-0.3-0.2-0.9-0.4-1.7-0.8l12.3-8.9l0.4-0.3c0.9,0.3,1.6,0.4,1.8,0.3c1.8-0.6,5.7,0.5,8.6,0.8
			c2.9,0.3,19.2,0.8,23.7,2.5C302.1,429.3,307.3,435.9,304.1,439z"/>
		<path class="st63" d="M304.1,439c-3.2,3.1-11.2,1.8-15.2,1.1c-4-0.8-23.5-1.4-26-2.2c-0.7-0.2-1.6-0.5-2.6-0.8c0,0,0,0,0,0
			c0,0,0,0,0,0s5.4-5.3,2.8-12.9l0.4-0.3c0.9,0.3,1.6,0.4,1.8,0.3c1.8-0.6,5.7,0.5,8.6,0.8c2.9,0.3,19.2,0.8,23.7,2.5
			C302.1,429.3,307.3,435.9,304.1,439z"/>
		<path class="st64" d="M210.1,385.1c0,0.1,0,0.1,0,0.2C209.7,385.5,209.8,385.4,210.1,385.1z"/>
		<path class="st9" d="M299,349.2c-0.3-0.5-14.3-22.6-18.1-32.6c-3.8-10.1-12.9-14.7-17.2-16.1c-1.5-0.5-4.3-1.4-7.2-2.3
			c-5.2-1.7-10.9-3.5-10.9-3.5h-18c0,0-6.2,2.1-12.8,4.4c0,0,0,0,0,0c-6.1,2.1-12.5,4.5-14.7,5.5c-4.5,2.3-12.1,18.4-13.6,20.2
			c-1.5,1.8-13.4,23.8-15.1,32.2c-1.3,6.5,37.5,25.7,38.6,28.2c1.2-1.4,6.9-6.8,6.9-6.8s-1.8-1.1-4.4-2.8
			c10.4,0.5,35.8-0.4,39.5-0.2c0.7,0,1.5,0,2.4-0.1c0,0,0,0,0,0c1.1,0.8,8.4,7.3,8.4,7.3s18-7.5,26.2-15.8
			C300.8,354.9,300.3,351.8,299,349.2z M196.9,363.7c-3.8-4.6-9.1-7.4-7.8-9.5c1.3-2.1,12.6-21.5,12.6-21.5s5.8,12.8,7.5,19.5
			c1.6,6.7,1.5,9.7,0.8,11.8c-0.6,1.9-1.1,3.1-1.7,8.7C203.8,369.6,198.7,365.9,196.9,363.7z M276.3,361.5
			c-1.5,1.7-7.5,5.5-12.8,8.6c-0.4-3.7-1-9.6-1.1-11.7c-0.1-3.2,1.2-12.3,2.9-15.8c1.6-3.5,2.8-13,2.8-13s13.6,18.5,15.7,20.4
			C285.9,352,281.4,355.8,276.3,361.5z"/>
		<g>
			<path class="st62" d="M238.8,245.2c0,0,14,2.2,11.9,24.2c-2.1,22-14.5,20.2-15.4,20.1c-0.8,0-12.4,0.4-13.3-26.4
				C222,263.1,221.6,243.3,238.8,245.2z"/>
		</g>
		<g>
			<path class="st62" d="M250.9,263.2c0,0,1.5-1.6,2.1,0c0.6,1.7-2.1,9.1-2.2,9.4c0,0-0.3,0.6-0.6,0.3
				C249.8,272.6,250.9,263.2,250.9,263.2z"/>
		</g>
		<g>
			<path class="st62" d="M222.4,262.9c0,0-1.5-1.7-2.1,0c-0.6,1.7,1.9,9.1,2,9.5c0,0,0.3,0.6,0.6,0.3
				C223.3,272.3,222.4,262.9,222.4,262.9z"/>
		</g>
		<g>
			<path class="st65" d="M250.9,266.6l-2,2.7c0,0,0.1-5.9-0.3-6.8c-0.3-0.9-0.8-3.7-1.1-4.4c-0.3-0.7-12.1-4-22.5,1
				c0,0,0.5,4.2-0.5,4.6c-1,0.4-0.5,6.9-0.5,6.9l-1.7-1.9c0,0-2.5-16.9-1.9-18.7c0.6-1.8,2.6-12.4,24-6.1c0,0,6.7-1.4,8,3.2
				C253.8,251.7,250.9,266.6,250.9,266.6z"/>
		</g>
		<path class="st6" d="M218.1,407c0,0-21.5-12.9-30.9-14.9c-8.9-1.9-12.1-5.2-12.1-5.2s14.1,0,23.5,6.7
			C205,398.1,218.1,407,218.1,407z"/>
		<path class="st6" d="M237.2,416c0,0,37.4-19.6,52.6-23.9c8.7-2.4,12.1-5.2,12.1-5.2s-23.1,2.3-37.2,10.7
			C258.1,401.7,237.2,416,237.2,416z"/>
		<path class="st62" d="M223.6,435.8c-2.5,1-5,1.6-6.6,2.1c-2.5,0.8-22,1.4-26,2.2c-4,0.8-12,2-15.2-1.1c-3.2-3.1,2-9.7,6.5-11.4
			c4.5-1.7,20.8-2.2,23.7-2.5c2.9-0.3,6.8-1.4,8.6-0.8c0.6,0.2,3.2-0.6,6.4-1.7C221,424.7,223.6,435.8,223.6,435.8z"/>
		<path class="st60" d="M237.2,434l36.7-10.9l-7.3-2.2C266.7,420.9,237.4,431.5,237.2,434z"/>
		<polygon class="st60" points="237.2,434 254.4,428.7 242.5,435.6 		"/>
		<path class="st66" d="M225.4,390c0,0-0.3-0.2-0.8-0.5C225,389.7,225.2,389.9,225.4,390z"/>
		<path class="st63" d="M217,437.9c-2.5,0.8-22,1.4-26,2.2c-4,0.8-12,2-15.2-1.1c-3.2-3.1,2-9.7,6.5-11.4c4.5-1.7,20.8-2.2,23.7-2.5
			c2.9-0.3,6.8-1.4,8.6-0.8C214.5,424.4,209.6,431.9,217,437.9z"/>
		<path class="st67" d="M256.5,298.1c0,0-5.9,25.9-19.9,25.9c-14,0-21.8-25-21.8-25s0,0,0,0c6.6-2.3,12.8-4.4,12.8-4.4h18
			C245.6,294.6,251.3,296.4,256.5,298.1z"/>
		<path class="st66" d="M204.8,386.9l-5.7-32.2l73.2-1.7l-4.7,31.7c0,0-23.4,8.6-31.3,13.5C236.3,398.2,216.3,390,204.8,386.9z"/>
		<path class="st62" d="M246,294.6C246,294.6,246,294.6,246,294.6c-0.9-2-0.5-11.5-0.5-11.5s-18-4.6-17.5-1.1c0.5,3.5-1.6,13-1.6,13
			l-9.2,3.1c0,0,9.8,26.2,21.1,22.9c11.3-3.4,15.6-23.8,15.6-23.8L246,294.6z"/>
		<path class="st68" d="M228.4,286.1c0,0,2.7,3.5,7.7,3.5c3.3,0,5.6-0.9,8.9-4.1c0,0-1.4,6-8.9,6.6
			C236.1,292.1,230.9,293,228.4,286.1z"/>
	</g>
	<g>
		<g>
			<rect x="142.9" y="186.2" class="st7" width="36.8" height="4.5"/>
			<rect x="133.9" y="178.1" class="st7" width="54.7" height="4.5"/>
			<circle class="st7" cx="161.4" cy="115.8" r="9.5"/>
			<path class="st7" d="M178.5,146.8v18.1c-5.3,2.4-11.1,3.7-17.2,3.7c-6.1,0-12-1.3-17.2-3.7v-18.1c0-9.5,7.7-17.2,17.2-17.2
				S178.5,137.3,178.5,146.8z"/>
			<g>
				<path class="st7" d="M161.3,169.7c-6.2,0-12.1-1.3-17.7-3.8c-15.3-6.9-25.1-22.3-25.1-39c0-23.6,19.2-42.9,42.9-42.9
					c23.6,0,42.9,19.2,42.9,42.9c0,16.8-9.9,32.1-25.1,39C173.4,168.5,167.5,169.7,161.3,169.7z M161.3,86.3
					c-22.4,0-40.6,18.2-40.6,40.6c0,15.9,9.3,30.4,23.8,37c5.3,2.4,10.9,3.6,16.8,3.6c5.9,0,11.5-1.2,16.8-3.6
					c14.5-6.6,23.8-21.1,23.8-37C201.9,104.5,183.7,86.3,161.3,86.3z"/>
			</g>
		</g>
	</g>
</g>
</svg>
